<svg width="110" height="110" viewBox="0 0 110 110" fill="none" xmlns="http://www.w3.org/2000/svg">
<path d="M93.8908 42.9129C83.5025 32.5246 69.691 26.8037 55 26.8037C40.309 26.8037 26.4972 32.5246 16.1092 42.9129C5.72093 53.3012 0 67.1127 0 81.8037C0 82.5725 0.623565 83.1961 1.39241 83.1961H108.608C109.376 83.1961 110 82.5725 110 81.8037C110 67.1127 104.279 53.3012 93.8908 42.9129ZM68.3439 80.4113H56.3924V55.348H68.3439V80.4113ZM53.6076 80.4113H41.6561V55.348H53.6076V80.4113ZM71.1287 80.4113V53.9556C71.1287 53.1868 70.5051 52.5632 69.7363 52.5632H40.2637C39.4949 52.5632 38.8713 53.1868 38.8713 53.9556V80.4113H2.80291C3.15171 66.9853 8.54473 54.4153 18.0781 44.882C27.9402 35.0198 41.0527 29.5885 55 29.5885C68.9473 29.5885 82.0595 35.0198 91.9217 44.882C101.455 54.4156 106.848 66.9853 107.197 80.4113H71.1287Z" fill="#212120"/>
<path d="M69.7363 42.5842H40.2637C39.4949 42.5842 38.8713 43.2078 38.8713 43.9766V49.3142C38.8713 50.083 39.4949 50.7066 40.2637 50.7066H69.7363C70.5052 50.7066 71.1287 50.083 71.1287 49.3142V43.9766C71.1287 43.2078 70.5052 42.5842 69.7363 42.5842ZM68.3439 47.9218H41.6561V45.369H68.3439V47.9218Z" fill="#212120"/>
<path d="M27.239 64.6306H17.2601C16.4912 64.6306 15.8677 65.2542 15.8677 66.023V73.2171C15.8677 73.986 16.4912 74.6095 17.2601 74.6095H27.239C28.0078 74.6095 28.6314 73.986 28.6314 73.2171V66.023C28.6314 65.2542 28.0078 64.6306 27.239 64.6306ZM18.6525 67.4154H20.8571V71.8247H18.6525V67.4154ZM25.8466 71.8247H23.6419V67.4154H25.8466V71.8247Z" fill="#212120"/>
<path d="M81.3687 66.023V73.2171C81.3687 73.986 81.9922 74.6095 82.7611 74.6095H92.74C93.5088 74.6095 94.1324 73.986 94.1324 73.2171V66.023C94.1324 65.2542 93.5088 64.6306 92.74 64.6306H82.7611C81.9922 64.6306 81.3687 65.2542 81.3687 66.023ZM91.3476 71.8247H89.1429V67.4154H91.3476V71.8247ZM84.1535 67.4154H86.3581V71.8247H84.1535V67.4154Z" fill="#212120"/>
</svg>
