<svg width="110" height="110" viewBox="0 0 110 110" fill="none" xmlns="http://www.w3.org/2000/svg">
<path d="M103.34 51.8786H96.245C95.2964 51.8786 94.5267 51.1089 94.5267 50.1603C94.5267 49.2117 95.2964 48.442 96.245 48.442H101.621V42.9264H96.245C95.2964 42.9264 94.5267 42.1567 94.5267 41.2081C94.5267 40.2594 95.2964 39.4897 96.245 39.4897H103.34C104.288 39.4897 105.058 40.2594 105.058 41.2081V50.1603C105.058 51.1089 104.288 51.8786 103.34 51.8786ZM77.3948 51.8786H64.4237C63.4751 51.8786 62.7054 51.1089 62.7054 50.1603C62.7054 49.2117 63.4751 48.442 64.4237 48.442H77.3948C78.3434 48.442 79.1131 49.2117 79.1131 50.1603C79.1131 51.1089 78.3434 51.8786 77.3948 51.8786ZM77.3948 42.9264H64.4237C63.4751 42.9264 62.7054 42.1567 62.7054 41.2081C62.7054 40.2594 63.4751 39.4897 64.4237 39.4897H77.3948C78.3434 39.4897 79.1131 40.2594 79.1131 41.2081C79.1131 42.1567 78.3434 42.9264 77.3948 42.9264ZM77.3948 74.9096H64.4237C63.4751 74.9096 62.7054 74.1399 62.7054 73.1913C62.7054 72.2426 63.4751 71.473 64.4237 71.473H77.3948C78.3434 71.473 79.1131 72.2426 79.1131 73.1913C79.1131 74.1399 78.3434 74.9096 77.3948 74.9096ZM77.3948 65.9573H64.4237C63.4751 65.9573 62.7054 65.1877 62.7054 64.239C62.7054 63.2904 63.4751 62.5207 64.4237 62.5207H77.3948C78.3434 62.5207 79.1131 63.2904 79.1131 64.239C79.1131 65.1877 78.3434 65.9573 77.3948 65.9573ZM103.34 74.9096H96.245C95.2964 74.9096 94.5267 74.1399 94.5267 73.1913C94.5267 72.2426 95.2964 71.473 96.245 71.473H101.621V65.9573H96.245C95.2964 65.9573 94.5267 65.1877 94.5267 64.239C94.5267 63.2904 95.2964 62.5207 96.245 62.5207H103.34C104.288 62.5207 105.058 63.2904 105.058 64.239V73.1913C105.058 74.1399 104.288 74.9096 103.34 74.9096ZM23.1787 51.8786C19.7619 51.8786 16.9843 49.1009 16.9843 45.6842C16.9843 42.2674 19.7619 39.4897 23.1787 39.4897C26.5954 39.4897 29.3731 42.2674 29.3731 45.6842C29.3731 49.1009 26.5954 51.8786 23.1787 51.8786ZM23.1787 42.9264C21.6592 42.9264 20.4209 44.1647 20.4209 45.6842C20.4209 47.2037 21.6592 48.442 23.1787 48.442C24.6982 48.442 25.9365 47.2037 25.9365 45.6842C25.9365 44.1647 24.701 42.9264 23.1787 42.9264ZM23.1787 74.9096C19.7619 74.9096 16.9843 72.1319 16.9843 68.7151C16.9843 65.2984 19.7619 62.5207 23.1787 62.5207C26.5954 62.5207 29.3731 65.2984 29.3731 68.7151C29.3731 72.129 26.5954 74.9096 23.1787 74.9096ZM23.1787 65.9573C21.6592 65.9573 20.4209 67.1957 20.4209 68.7151C20.4209 70.2346 21.6592 71.473 23.1787 71.473C24.6982 71.473 25.9365 70.2346 25.9365 68.7151C25.9365 67.1928 24.701 65.9573 23.1787 65.9573ZM55 51.8786C51.5833 51.8786 48.8056 49.1009 48.8056 45.6842C48.8056 42.2674 51.5833 39.4897 55 39.4897C58.4167 39.4897 61.1944 42.2674 61.1944 45.6842C61.1944 49.1009 58.4167 51.8786 55 51.8786ZM55 42.9264C53.4805 42.9264 52.2422 44.1647 52.2422 45.6842C52.2422 47.2037 53.4805 48.442 55 48.442C56.5195 48.442 57.7578 47.2037 57.7578 45.6842C57.7578 44.1647 56.5195 42.9264 55 42.9264ZM55 74.9096C51.5833 74.9096 48.8056 72.1319 48.8056 68.7151C48.8056 65.2984 51.5833 62.5207 55 62.5207C58.4167 62.5207 61.1944 65.2984 61.1944 68.7151C61.1944 72.129 58.4167 74.9096 55 74.9096ZM55 65.9573C53.4805 65.9573 52.2422 67.1957 52.2422 68.7151C52.2422 70.2346 53.4805 71.473 55 71.473C56.5195 71.473 57.7578 70.2346 57.7578 68.7151C57.7578 67.1928 56.5195 65.9573 55 65.9573ZM86.8213 51.8786C83.4046 51.8786 80.6269 49.1009 80.6269 45.6842C80.6269 42.2674 83.4046 39.4897 86.8213 39.4897C90.2381 39.4897 93.0158 42.2674 93.0158 45.6842C93.0158 49.1009 90.2352 51.8786 86.8213 51.8786ZM86.8213 42.9264C85.3018 42.9264 84.0635 44.1647 84.0635 45.6842C84.0635 47.2037 85.3018 48.442 86.8213 48.442C88.3408 48.442 89.5791 47.2037 89.5791 45.6842C89.5763 44.1647 88.3408 42.9264 86.8213 42.9264ZM86.8213 74.9096C83.4046 74.9096 80.6269 72.1319 80.6269 68.7151C80.6269 65.2984 83.4046 62.5207 86.8213 62.5207C90.2381 62.5207 93.0158 65.2984 93.0158 68.7151C93.0158 72.129 90.2352 74.9096 86.8213 74.9096ZM86.8213 65.9573C85.3018 65.9573 84.0635 67.1957 84.0635 68.7151C84.0635 70.2346 85.3018 71.473 86.8213 71.473C88.3408 71.473 89.5791 70.2346 89.5791 68.7151C89.5763 67.1928 88.3408 65.9573 86.8213 65.9573Z" fill="#212120" stroke="white" stroke-width="0.5"/>
<path d="M45.5763 51.8786H32.6052C31.6566 51.8786 30.8869 51.1089 30.8869 50.1603C30.8869 49.2117 31.6566 48.442 32.6052 48.442H45.5763C46.5249 48.442 47.2946 49.2117 47.2946 50.1603C47.2946 51.1089 46.5249 51.8786 45.5763 51.8786ZM45.5763 42.9264H32.6052C31.6566 42.9264 30.8869 42.1567 30.8869 41.2081C30.8869 40.2594 31.6566 39.4897 32.6052 39.4897H45.5763C46.5249 39.4897 47.2946 40.2594 47.2946 41.2081C47.2946 42.1567 46.5249 42.9264 45.5763 42.9264ZM13.755 51.8786H6.6602C5.71158 51.8786 4.94189 51.1089 4.94189 50.1603V41.2081C4.94189 40.2594 5.71158 39.4897 6.6602 39.4897H13.755C14.7036 39.4897 15.4733 40.2594 15.4733 41.2081C15.4733 42.1567 14.7036 42.9264 13.755 42.9264H8.37851V48.442H13.755C14.7036 48.442 15.4733 49.2117 15.4733 50.1603C15.4733 51.1089 14.7036 51.8786 13.755 51.8786ZM13.755 74.9096H6.6602C5.71158 74.9096 4.94189 74.1399 4.94189 73.1913V64.239C4.94189 63.2904 5.71158 62.5207 6.6602 62.5207H13.755C14.7036 62.5207 15.4733 63.2904 15.4733 64.239C15.4733 65.1877 14.7036 65.9573 13.755 65.9573H8.37851V71.473H13.755C14.7036 71.473 15.4733 72.2427 15.4733 73.1913C15.4733 74.1399 14.7036 74.9096 13.755 74.9096ZM45.5763 65.9573H32.6052C31.6566 65.9573 30.8869 65.1877 30.8869 64.239C30.8869 63.2904 31.6566 62.5207 32.6052 62.5207H45.5763C46.5249 62.5207 47.2946 63.2904 47.2946 64.239C47.2946 65.1877 46.5249 65.9573 45.5763 65.9573ZM45.5763 74.9096H32.6052C31.6566 74.9096 30.8869 74.1399 30.8869 73.1913C30.8869 72.2427 31.6566 71.473 32.6052 71.473H45.5763C46.5249 71.473 47.2946 72.2427 47.2946 73.1913C47.2946 74.1399 46.5249 74.9096 45.5763 74.9096Z" fill="#212120" stroke="white" stroke-width="0.5"/>
<path d="M32.6052 88.2443C31.6566 88.2443 30.8869 87.4746 30.8869 86.526V31.9776C30.8869 31.3357 30.7221 30.7023 30.4097 30.1428L23.1786 17.1916L15.9504 30.1428C15.638 30.7023 15.4732 31.3385 15.4732 31.9776V86.526C15.4732 87.4746 14.7035 88.2443 13.7549 88.2443C12.8063 88.2443 12.0366 87.4746 12.0366 86.526V31.9776C12.0366 30.7506 12.3519 29.5379 12.9483 28.4671L20.9661 14.0987C21.412 13.2977 22.2613 12.8007 23.1786 12.8007C23.1815 12.8007 24.6413 12.7553 25.3911 14.1015L33.4089 28.4671C34.0054 29.5379 34.3235 30.7506 34.3235 31.9776V86.526C34.3235 87.4746 33.5538 88.2443 32.6052 88.2443ZM64.4237 88.2443C63.475 88.2443 62.7053 87.4746 62.7053 86.526V31.9776C62.7053 31.3357 62.5406 30.7023 62.2282 30.1428L55 17.1888L47.7717 30.1428C47.4593 30.7023 47.2946 31.3385 47.2946 31.9776V86.526C47.2946 87.4746 46.5249 88.2443 45.5762 88.2443C44.6276 88.2443 43.8579 87.4746 43.8579 86.526V31.9776C43.8579 30.7506 44.1732 29.5379 44.7725 28.4671L52.7903 14.0987C53.2362 13.2977 54.0854 12.8007 55.0028 12.8007C55.9202 12.8007 56.7694 13.2977 57.2153 14.0987L65.2331 28.4671C65.8295 29.5379 66.1476 30.7506 66.1476 31.9776V86.526C66.142 87.4746 65.3723 88.2443 64.4237 88.2443ZM96.245 88.2443C95.2964 88.2443 94.5267 87.4746 94.5267 86.526V31.9776C94.5267 31.3357 94.3619 30.7023 94.0495 30.1428L86.8213 17.1888L79.593 30.1428C79.2806 30.7023 79.1159 31.3385 79.1159 31.9776V86.526C79.1159 87.4746 78.3462 88.2443 77.3976 88.2443C76.449 88.2443 75.6793 87.4746 75.6793 86.526V31.9776C75.6793 30.7506 75.9945 29.5379 76.5938 28.4671L84.6088 14.1015C85.5688 12.3747 88.071 12.3719 89.0338 14.1015L97.0516 28.47C97.648 29.5407 97.9661 30.7535 97.9661 31.9804V86.5288C97.9633 87.4746 97.1936 88.2443 96.245 88.2443Z" fill="#212120" stroke="white" stroke-width="0.5"/>
<path d="M103.34 97.1965H6.6602C5.71158 97.1965 4.94189 96.4268 4.94189 95.4782V86.5259C4.94189 85.5773 5.71158 84.8076 6.6602 84.8076H103.34C104.288 84.8076 105.058 85.5773 105.058 86.5259V95.4782C105.058 96.4268 104.288 97.1965 103.34 97.1965ZM8.37851 93.7598H101.621V88.2442H8.37851V93.7598Z" fill="#212120" stroke="white" stroke-width="0.5"/>
</svg>
