<svg width="110" height="110" viewBox="0 0 110 110" fill="none" xmlns="http://www.w3.org/2000/svg">
<g clip-path="url(#clip0_6_27)">
<path d="M108.562 30.4718H52.2248L39.408 20.1723C38.882 19.7495 38.1329 19.7495 37.6066 20.1723L27.3203 28.4383V25.6788C27.3203 24.8848 26.6763 24.2408 25.8824 24.2408H14.6187C13.8248 24.2408 13.1808 24.8848 13.1808 25.6788V39.8007L0.537304 49.961C0.0618357 50.3432 -0.121018 50.9838 0.0817267 51.5592C0.284472 52.1346 0.827762 52.5197 1.43791 52.5197H8.14815V88.7071C8.14815 89.501 8.79186 90.145 9.58606 90.145H108.562C109.356 90.145 110 89.501 110 88.7071V31.9097C110 31.1155 109.356 30.4718 108.562 30.4718ZM107.124 33.3476V49.6439H76.0829L55.8036 33.3476H107.124ZM16.0566 27.1167H24.4444V30.7493L16.0566 37.4897V27.1167ZM38.5074 23.1377L71.4921 49.6439H68.4322L39.4088 26.3208C38.8827 25.898 38.1336 25.898 37.6073 26.3208L8.58408 49.6439H5.52277L38.5074 23.1377ZM55.5991 87.2692H46.9717V65.2212H55.5991V87.2692ZM100.893 68.6962H73.573V65.2212H100.893V68.6962ZM73.573 71.572H100.893V74.8073H73.573V71.572ZM73.573 77.6831H100.893V80.9184H73.573V77.6831ZM73.573 83.7942H100.893V87.2692H73.573V83.7942ZM107.124 87.2692H103.769V63.7833C103.769 62.9894 103.125 62.3454 102.331 62.3454H72.1351C71.3411 62.3454 70.6972 62.9894 70.6972 63.7833V87.2692H58.4749V63.7833C58.4749 62.9894 57.8312 62.3454 57.037 62.3454H45.5338C44.7396 62.3454 44.0959 62.9894 44.0959 63.7833V87.2692H11.024V51.3723L38.5082 29.2862L67.0255 52.2027C67.2807 52.4078 67.5987 52.5197 67.9261 52.5197H107.124V87.2692Z" fill="#212120"/>
<path d="M33.5512 58.9902H19.4118C18.6178 58.9902 17.9739 59.6342 17.9739 60.4281V74.5676C17.9739 75.3615 18.6178 76.0055 19.4118 76.0055H33.5512C34.3452 76.0055 34.9891 75.3615 34.9891 74.5676V60.4281C34.9891 59.6339 34.3454 58.9902 33.5512 58.9902ZM20.8497 61.8661H26.122V73.1297H20.8497V61.8661ZM32.1133 73.1297H28.9978V61.8661H32.1133V73.1297Z" fill="#212120"/>
</g>
<defs>
<clipPath id="clip0_6_27">
<rect width="110" height="110" fill="white"/>
</clipPath>
</defs>
</svg>
