<svg width="110" height="110" viewBox="0 0 110 110" fill="none" xmlns="http://www.w3.org/2000/svg">
<g clip-path="url(#clip0_6_79)">
<path d="M47.6766 49.165H66.4405C67.2397 49.165 67.8879 48.5168 67.8879 47.7176V24.4244C67.8879 23.6252 67.2397 22.9771 66.4405 22.9771H47.6766C46.8774 22.9771 46.2292 23.6252 46.2292 24.4244V47.7176C46.2292 48.5171 46.8772 49.165 47.6766 49.165ZM64.9932 46.2703H58.5058V25.8718H64.9932V46.2703ZM49.124 25.8718H55.6113V46.2703H49.124V25.8718Z" fill="#212120"/>
<path d="M47.6766 82.4555H66.4405C67.2397 82.4555 67.8879 81.8074 67.8879 81.0082V56.0975C67.8879 55.2983 67.2397 54.6501 66.4405 54.6501H47.6766C46.8774 54.6501 46.2292 55.2983 46.2292 56.0975V81.0084C46.2292 81.8076 46.8772 82.4555 47.6766 82.4555ZM64.9932 79.5608H58.5058V57.5449H64.9932V79.5608ZM49.124 57.5449H55.6113V79.561H49.124V57.5449Z" fill="#212120"/>
<path d="M36.747 44.7919C36.2814 44.5387 35.7147 44.5596 35.2697 44.8469L6.84698 63.195C6.434 63.4615 6.18457 63.9194 6.18457 64.411V73.6829C6.18457 74.4821 6.83275 75.1302 7.63194 75.1302H36.0546C36.8538 75.1302 37.502 74.4821 37.502 73.6829V46.063C37.5018 45.533 37.2123 45.0455 36.747 44.7919ZM9.07931 65.1994L20.396 57.894V72.2355H9.07931V65.1994ZM34.607 72.2355H23.2905V56.0252L34.607 48.7199V72.2355Z" fill="#212120"/>
<path d="M108.553 50.0261H100.148V30.992C100.148 30.1928 99.5003 29.5446 98.7011 29.5446H73.3722V18.1092C73.3722 17.31 72.724 16.6619 71.9248 16.6619H42.192C41.3928 16.6619 40.7446 17.31 40.7446 18.1092V33.9656L0.662412 59.8402C0.24943 60.1068 0 60.5649 0 61.0563V91.89C0 92.6892 0.64818 93.3374 1.44737 93.3374L108.553 93.3379C109.352 93.3379 110 92.6897 110 91.8905V51.4735C110 50.6743 109.352 50.0261 108.553 50.0261ZM2.89474 61.8448L40.7446 37.4111V90.4429H2.89474V61.8448ZM70.4774 90.4429H43.6394V19.5566H70.4772V90.4429H70.4774ZM97.2538 32.4396V50.0264H93.5806V38.5707C93.5806 37.7715 92.9324 37.1233 92.1332 37.1233H76.7243C75.9251 37.1233 75.2769 37.7715 75.2769 38.5707V50.0264H73.3722V32.4396H97.2538ZM90.6858 50.0261H78.1716V40.0178H90.6858V50.0261ZM101.927 90.4434H78.5504V70.5833H101.927V90.4434ZM107.105 90.4434H104.822V69.136C104.822 68.3368 104.173 67.6886 103.374 67.6886H77.103C76.3038 67.6886 75.6556 68.3368 75.6556 69.136V90.4434H73.3719V52.9209H107.105V90.4434Z" fill="#212120"/>
<path d="M77.103 65.0259H103.374C104.173 65.0259 104.822 64.378 104.822 63.5785V57.516C104.822 56.7165 104.173 56.0686 103.374 56.0686H77.103C76.3038 56.0686 75.6556 56.7165 75.6556 57.516V63.5785C75.6556 64.3777 76.3038 65.0259 77.103 65.0259ZM78.5504 58.9633H101.927V62.1312H78.5504V58.9633Z" fill="#212120"/>
</g>
<defs>
<clipPath id="clip0_6_79">
<rect width="110" height="110" fill="white"/>
</clipPath>
</defs>
</svg>
