<svg width="110" height="110" viewBox="0 0 110 110" fill="none" xmlns="http://www.w3.org/2000/svg">
<path d="M109.375 41.6121L55.8283 4.4677C55.33 4.12177 54.6696 4.12177 54.1713 4.4677L0.62526 41.6121C0.102966 41.9743 -0.123297 42.6339 0.0666284 43.2405C0.256311 43.8471 0.818334 44.2599 1.45376 44.2599H8.42599V102.885H3.03711C2.23429 102.885 1.58361 103.536 1.58361 104.338C1.58361 105.141 2.23429 105.792 3.03711 105.792H106.963C107.766 105.792 108.416 105.141 108.416 104.338C108.416 103.536 107.766 102.885 106.963 102.885H101.574V44.2599H108.546C109.182 44.2599 109.744 43.8471 109.933 43.2405C110.123 42.6339 109.897 41.9745 109.375 41.6121ZM11.333 102.885V44.2599H16.4203V102.885H11.333ZM44.3526 21.8928H65.647L72.4569 26.6167H37.5429L44.3526 21.8928ZM48.5433 18.9858L54.9998 14.5071L61.4563 18.9858H48.5433ZM33.3522 29.5238H76.6476L83.4575 34.2477H26.5423L33.3522 29.5238ZM22.3516 37.1547H87.6482L93.7004 41.3529H16.2996L22.3516 37.1547ZM36.1044 78.8219V77.1261H73.8956V78.8219H36.1044ZM75.3491 81.7289C76.1517 81.7289 76.8026 81.078 76.8026 80.2754V75.6726C76.8026 74.87 76.1517 74.2191 75.3491 74.2191H34.6509C33.8483 74.2191 33.1974 74.87 33.1974 75.6726V80.2754C33.1974 81.078 33.8483 81.7289 34.6509 81.7289H51.2451V102.885H19.3273V60.732L35.7992 44.2599H74.2008L90.6727 60.732V102.885H58.7549V81.7289H75.3491ZM22.9526 44.2599L19.3273 47.8852V44.2599H22.9526ZM19.3273 51.9962L27.0636 44.2599H31.6882L19.3273 56.621V51.9962V51.9962ZM82.9364 44.2599L90.6727 51.9962V56.621L78.3119 44.2599H82.9364ZM90.6727 47.8852L87.0474 44.2599H90.6727V47.8852ZM54.1521 102.885V81.7289H55.8479V102.885H54.1521ZM98.667 102.885H93.5797V44.2599H98.667V102.885ZM98.8005 41.3529L55.8283 11.5436C55.33 11.1977 54.6696 11.1977 54.1713 11.5436L11.1993 41.3529H6.09917L55 7.43116L103.901 41.3529H98.8005Z" fill="#212120"/>
</svg>
