<svg width="110" height="110" viewBox="0 0 110 110" fill="none" xmlns="http://www.w3.org/2000/svg">
<g clip-path="url(#clip0_6_65)">
<path d="M109.771 79.2233C109.352 78.5868 108.495 78.4112 107.858 78.8313C106.944 79.4346 105.886 79.712 104.839 79.6699V72.91C104.839 72.1473 104.221 71.5287 103.458 71.5287H94.9404V46.4364H99.8898C100.317 46.4364 100.721 46.2386 100.982 45.9005C101.244 45.5623 101.334 45.1221 101.227 44.7085L97.0484 28.5941C96.8905 27.985 96.3407 27.5596 95.7114 27.5596H14.2886C13.6594 27.5596 13.1094 27.985 12.9515 28.5941L8.77307 44.7085C8.66557 45.1221 8.75604 45.5623 9.01778 45.9005C9.27929 46.2386 9.68284 46.4364 10.1101 46.4364H15.0595V71.5287H6.54193C5.77926 71.5287 5.1607 72.1473 5.1607 72.91V79.6699C4.11349 79.712 3.05639 79.4346 2.14225 78.8313C1.50573 78.4109 0.648908 78.5866 0.228554 79.2233C-0.19157 79.8601 -0.0161537 80.7167 0.620593 81.137C3.25391 82.8753 6.65772 82.8753 9.29149 81.137C11.0005 80.0085 13.2096 80.009 14.9189 81.137C17.5522 82.8753 20.956 82.8753 23.5898 81.137C25.2988 80.0085 27.5078 80.009 29.2171 81.137C30.5339 82.006 32.0429 82.4407 33.5523 82.4407C35.0616 82.4407 36.5708 82.006 37.8876 81.137C39.5968 80.0085 41.8056 80.009 43.5151 81.137C46.1487 82.8753 49.552 82.8753 52.1861 81.137C53.8951 80.0085 56.1041 80.009 57.8134 81.137C60.447 82.8753 63.8505 82.8753 66.4841 81.137C68.1938 80.009 70.4024 80.0095 72.1117 81.137C74.7452 82.8758 78.1493 82.8748 80.7823 81.137C82.4921 80.009 84.7007 80.0095 86.4099 81.137C89.0437 82.8758 92.4475 82.8748 95.0808 81.137C96.7903 80.009 98.9991 80.0095 100.708 81.137C103.341 82.8753 106.745 82.8753 109.379 81.137C110.016 80.7167 110.192 79.8601 109.771 79.2233ZM92.1782 71.5287H85.5022V51.5009C85.5022 50.7382 84.8837 50.1197 84.121 50.1197H76.5242V46.4364H92.1782V71.5287ZM19.7594 43.6739L22.6091 30.322H27.3787L25.168 43.6739H19.7594ZM30.1787 30.322H36.2349L34.7701 43.6739H27.968L30.1787 30.322ZM39.014 30.322H44.8763L44.1395 43.6739H37.5492L39.014 30.322ZM47.643 30.322H53.6186V43.6739H46.9061L47.643 30.322ZM56.3813 30.322H62.357L63.0938 43.6739H56.3813V30.322ZM65.8607 43.6739L65.1238 30.322H70.9862L72.451 43.6739H65.8607ZM84.8319 43.6739L82.6212 30.322H87.3908L90.2405 43.6739H84.8319ZM82.0319 43.6739H75.2298L73.765 30.322H79.8212L82.0319 43.6739ZM76.5242 52.8821H82.7398V71.5287H76.5242V52.8821ZM98.105 43.6739H93.5594H93.0656L90.2159 30.322H94.6428L98.105 43.6739ZM15.3574 30.322H19.7842L16.9345 43.6739H16.4407H11.8949L15.3574 30.322ZM30.0228 51.0405V63.932H27.8359V51.0405H30.0228V51.0405ZM25.0734 63.932H22.7714V51.0405H25.0734V63.932ZM20.0089 63.932H17.822V51.0405H20.0089V63.932ZM17.822 66.6944H31.4041C32.1667 66.6944 32.7853 66.0759 32.7853 65.3132V49.6592C32.7853 48.8966 32.1667 48.278 31.4041 48.278H17.822V46.4364H73.7618V71.5287H17.822V66.6944ZM93.5596 78.8313C91.8506 79.9591 89.6418 79.9595 87.932 78.8313C85.299 77.0935 81.8954 77.0925 79.2614 78.8313C77.5523 79.9591 75.3433 79.9595 73.634 78.8313C71.0005 77.0935 67.5967 77.0925 64.9631 78.8313C63.2536 79.9593 61.0448 79.9593 59.3358 78.8313C56.7022 77.0932 53.2984 77.0928 50.6649 78.8313C48.9554 79.9593 46.7465 79.9593 45.0375 78.8313C42.404 77.0932 39.0001 77.0928 36.3666 78.8313C34.6571 79.9591 32.448 79.9595 30.7395 78.8313C28.1055 77.0928 24.7016 77.0928 22.0686 78.8313C20.3593 79.9591 18.1502 79.9595 16.441 78.8313C13.8576 77.1259 10.5348 77.0978 7.92362 78.738V74.2914H102.077V78.7383C99.4658 77.0983 96.1437 77.1257 93.5596 78.8313Z" fill="#212120"/>
<path d="M51.2017 48.2781H38.7706C38.008 48.2781 37.3894 48.8966 37.3894 49.6593V60.4789C37.3894 61.2416 38.008 61.8602 38.7706 61.8602H51.2017C51.9644 61.8602 52.5829 61.2416 52.5829 60.4789V49.6593C52.5829 48.8966 51.9644 48.2781 51.2017 48.2781ZM49.8205 59.0977H40.1519V51.0405H49.8205V59.0977Z" fill="#212120"/>
<path d="M69.3879 48.2781H56.9568C56.1941 48.2781 55.5756 48.8966 55.5756 49.6593V60.4789C55.5756 61.2416 56.1941 61.8602 56.9568 61.8602H69.3879C70.1505 61.8602 70.7691 61.2416 70.7691 60.4789V49.6593C70.7691 48.8966 70.1505 48.2781 69.3879 48.2781ZM68.0066 59.0977H58.338V51.0405H68.0066V59.0977Z" fill="#212120"/>
</g>
<defs>
<clipPath id="clip0_6_65">
<rect width="110" height="110" fill="white"/>
</clipPath>
</defs>
</svg>
