<svg width="64" height="64" viewBox="0 0 64 64" fill="none" xmlns="http://www.w3.org/2000/svg">
<path d="M58.6667 34.9767L47.1318 38.9457L42.4806 36.2791V32V27.7829L47.1318 25.1163L58.6667 29.0853C59.4729 29.3953 60.4031 28.8992 60.6511 28.093C60.9612 27.2868 60.4651 26.3566 59.6589 26.1085L50.7287 23.0698L59.1008 18.2326C59.8449 17.7984 60.093 16.8062 59.6589 16.062C59.2248 15.3178 58.2325 15.0698 57.4884 15.5039L49.1163 20.3411L50.9147 11.1008C51.1008 10.2326 50.5426 9.42636 49.6744 9.24031C48.8062 9.05426 48 9.6124 47.8139 10.4806L45.4574 22.4496L40.8062 25.1163L37.2713 23.0698L37.2093 23.0078L33.6124 20.8992V15.5659L42.7907 7.56589C43.4729 7.00775 43.5349 6.0155 42.9147 5.33333C42.3566 4.65116 41.3643 4.58915 40.6822 5.2093L33.6124 11.4109V1.6124C33.6124 0.744186 32.9302 0 32 0C31.1318 0 30.3876 0.682171 30.3876 1.6124V11.2868L23.3178 5.14729C22.6356 4.58915 21.6434 4.65116 21.0853 5.27132C20.5271 5.95349 20.5891 6.94574 21.2093 7.50388L30.3876 15.5039V20.8372L26.7907 22.9457L23.1938 25.0543L18.5426 22.3876L16.186 10.4186C16 9.55039 15.1938 8.99225 14.3256 9.17829C13.4573 9.36434 12.8992 10.1705 13.0853 11.0388L14.8837 20.2791L6.51161 15.4419C5.76743 15.0078 4.77518 15.2558 4.34107 16C3.90696 16.7442 4.15502 17.7364 4.89921 18.1705L13.2713 23.0078L4.34107 26.0465C3.53487 26.3566 3.03875 27.2248 3.34882 28.031C3.6589 28.8372 4.52712 29.3333 5.33332 29.0233L16.8682 25.0543L21.5194 27.7209V32V36.2171H21.5814L16.9302 38.8837L5.39533 34.9147C4.58913 34.6047 3.6589 35.1008 3.41084 35.907C3.10076 36.7132 3.59689 37.6434 4.40309 37.8915L13.3333 40.9302L4.96123 45.7674C4.21704 46.2016 3.96898 47.1938 4.40309 47.938C4.8372 48.6822 5.82944 48.9302 6.57363 48.4961L14.9457 43.6589L13.1473 52.8992C12.9612 53.7674 13.5194 54.5736 14.3876 54.7597C15.2558 54.9457 16.062 54.3876 16.248 53.5194L18.6046 41.5504L23.2558 38.8837L26.9147 40.9922L30.5116 43.1008V48.4341L21.3333 56.4341C20.6511 56.9922 20.5891 57.9845 21.2093 58.6667C21.7674 59.3488 22.7597 59.4109 23.4418 58.7907L30.5116 52.5891V62.3876C30.5116 63.2558 31.1938 64 32.124 64C32.9922 64 33.7364 63.3178 33.7364 62.3876V52.7132L40.8062 58.9147C41.4884 59.4729 42.4806 59.4109 43.0387 58.7907C43.5969 58.1085 43.5349 57.1163 42.9147 56.5581L33.6124 48.4961V43.1628L37.2093 41.0543L40.8062 38.9457L45.4574 41.6124L47.8139 53.5814C48 54.4496 48.8062 55.0078 49.6744 54.8217C50.5426 54.6357 51.1008 53.8295 50.9147 52.9612L49.1163 43.7209L57.4884 48.5581C58.2325 48.9922 59.2248 48.7442 59.6589 48C60.093 47.2558 59.8449 46.2636 59.1008 45.8295L50.7287 40.9922L59.6589 37.9535C60.4651 37.6434 60.9612 36.7752 60.6511 35.969C60.3411 35.1628 59.4729 34.6667 58.6667 34.9767ZM39.1318 32V36.2171L35.5349 38.3256L32 40.3721L28.3411 38.2636L24.7442 36.155V32V27.7829L28.3411 25.6744L31.938 23.5659L35.5349 25.6744L35.5969 25.7364L39.1318 27.7829V32Z" fill="black"/>
</svg>
