<svg width="64" height="64" viewBox="0 0 64 64" fill="none" xmlns="http://www.w3.org/2000/svg">
<g clip-path="url(#clip0_6_917)">
<path d="M4.4138 33.1035H59.5863C60.1957 33.1035 60.6898 33.5975 60.6898 34.207V36.4139C60.6898 37.0233 60.1958 37.5174 59.5863 37.5174H4.4138C3.80443 37.5174 3.3103 37.0234 3.3103 36.4139V34.207C3.31043 33.5975 3.80443 33.1035 4.4138 33.1035Z" fill="black"/>
<path d="M16.5517 46.345H47.4482C48.0576 46.345 48.5517 46.839 48.5517 47.4485V49.6553C48.5517 50.2647 48.0577 50.7588 47.4482 50.7588H16.5517C15.9424 50.7588 15.4482 50.2648 15.4482 49.6553V47.4485C15.4482 46.839 15.9422 46.345 16.5517 46.345Z" fill="black"/>
<path d="M25.3793 59.5862H38.6206C39.23 59.5862 39.7241 60.0802 39.7241 60.6897V62.8966C39.7241 63.5059 39.2301 64.0001 38.6206 64.0001H25.3793C24.7699 64.0001 24.2758 63.5061 24.2758 62.8966V60.6897C24.2759 60.0802 24.7699 59.5862 25.3793 59.5862Z" fill="black"/>
<path d="M32.0001 0C33.219 0 34.207 0.988 34.207 2.20688V29.7931H29.7932V2.20688C29.7932 0.988 30.7812 0 32.0001 0Z" fill="black"/>
</g>
<defs>
<clipPath id="clip0_6_917">
<rect width="64" height="64" fill="white"/>
</clipPath>
</defs>
</svg>
