<svg width="179" height="51" viewBox="0 0 179 51" fill="none" xmlns="http://www.w3.org/2000/svg">
<path fill-rule="evenodd" clip-rule="evenodd" d="M27.2553 0.0625016L19.559 4.1368C19.3837 4.2298 19.2812 4.39962 19.2812 4.59772V6.5426C19.2812 6.74069 19.3837 6.91051 19.559 7.0032L27.2553 11.0778C27.413 11.1611 27.5866 11.1611 27.7443 11.0778L35.4407 7.0032C35.616 6.91051 35.7182 6.74069 35.7182 6.5426V4.59772C35.7182 4.39962 35.616 4.2298 35.4407 4.1368L27.7443 0.0625016C27.5866 -0.0208339 27.413 -0.0208339 27.2553 0.0625016ZM24.6485 47.1366L9.97192 28.3295L14.5235 28.1645L22.8721 41.7817C22.9099 41.8432 22.9877 41.8656 23.0524 41.8331C23.1169 41.801 23.1457 41.7251 23.119 41.658L16.4838 25.0403L16.9423 24.3094L26.2174 47.1717L26.6985 47.1781L21.4924 9.88295L27.4998 13.0631L28.1184 36.8928C28.1213 37.0004 28.2055 37.0873 28.3129 37.0935C28.4206 37.1 28.5147 37.0236 28.53 36.9171L32.3685 10.4857L33.5073 9.88295L28.3002 47.1852L28.7755 47.183L38.0552 24.3094L38.5137 25.0403L31.8785 41.658C31.8516 41.7251 31.8804 41.801 31.9451 41.8331C32.0095 41.8656 32.0877 41.8432 32.1252 41.7817L40.4741 28.1645L45.0256 28.3295L30.3298 47.1611C33.5472 47.0929 36.682 46.8777 39.1734 46.48C39.947 46.3566 40.525 46.2373 40.9525 46.1338C41.405 46.0242 41.7004 45.9294 41.8848 45.8628L42.1887 45.7528L42.3632 45.4817C42.471 45.3148 42.6712 44.9901 42.9511 44.4826C43.2311 43.9742 43.5915 43.2842 44.0184 42.3906C45.3725 39.5554 46.7652 35.9929 47.9642 32.3664C49.1381 28.8161 50.1301 25.1906 50.721 22.1144C50.8374 21.5089 50.9462 20.8983 51.0317 20.2527C51.1151 19.6193 51.1696 18.9791 51.1742 18.3232L51.1763 17.9817L50.9612 17.7183C50.8082 17.5311 50.4796 17.1454 49.9269 16.572C49.5709 16.2026 49.1186 15.7513 48.5567 15.2194C47.5519 14.2681 46.2207 13.0853 44.4969 11.6904C43.3345 10.7497 41.9891 9.70934 40.4402 8.57501L35.0458 22.0781L38.4575 2.53356L39.2198 3.04818C40.0521 3.61524 40.9061 4.21151 41.7768 4.83669C43.7891 6.28387 45.5071 7.60315 46.9629 8.78183C48.7522 10.2305 50.1389 11.4627 51.1881 12.456C52.1685 13.3836 52.8827 14.1343 53.3641 14.6687C53.8363 15.193 54.0613 15.4813 54.1049 15.5381C54.2246 15.6942 54.3349 15.862 54.4342 16.0378C54.5352 16.2168 54.6226 16.4002 54.695 16.5847C54.765 16.7626 54.8239 16.9514 54.8701 17.1471C54.9458 17.467 54.966 17.7129 54.9915 18.0266C55.0223 18.7684 54.967 19.581 54.8682 20.3994C54.767 21.2371 54.6213 22.0654 54.4741 22.8313C53.8644 26.0045 52.8203 29.814 51.5822 33.5639C50.3256 37.3707 48.8715 41.1038 47.4722 44.0335L47.342 44.3111C46.6984 45.6659 45.7117 47.7416 44.625 48.6463C44.043 49.1307 43.2528 49.4612 42.4205 49.7021C41.5343 49.9581 40.587 50.1137 39.7715 50.2439C36.9986 50.687 33.5603 50.9187 30.0573 50.9818C26.1151 51.053 22.0963 50.9117 18.8471 50.6187C17.2659 50.4764 15.9664 50.3058 14.937 50.1427C13.0516 49.8435 12.1063 49.569 11.9892 49.5339C11.7988 49.4773 11.6181 49.4093 11.4503 49.3325C11.2741 49.2518 11.0973 49.1557 10.9232 49.0459C10.2847 48.6439 9.72744 47.9945 9.2411 47.2766C8.70858 46.4903 8.27369 45.6486 7.90244 44.9245C7.37834 43.9007 6.75209 42.5529 6.03179 40.7889C5.31727 39.0393 4.51986 36.8949 3.65291 34.2765C2.87612 31.9241 2.26807 29.8592 1.79278 28.0685C1.19704 25.8264 0.800118 23.9946 0.535962 22.5563C0.369537 21.6507 0.252029 20.8538 0.169343 20.1933C0.0206958 19.0072 0.00270652 18.4119 0.000812928 18.3184C-0.00307945 18.1303 0.00702072 17.9311 0.0307958 17.7243C0.0548864 17.5174 0.0899168 17.3246 0.13631 17.1476C0.327983 16.4105 0.770346 15.6893 1.30139 15.0145C1.87452 14.2859 2.54559 13.617 3.13702 13.0278C3.96157 12.207 5.0487 11.2024 6.47436 10.0047C7.90465 8.80348 9.70219 7.38572 11.9578 5.73057C13.0442 4.93495 14.0746 4.207 15.0459 3.54315C15.5631 3.19016 16.0595 2.85702 16.5353 2.54386L19.9506 22.0781L14.5519 8.56188L14.2158 8.80726C12.0679 10.3832 10.3576 11.7298 8.99704 12.8686C7.62914 14.0142 6.59965 14.9632 5.82812 15.7311C5.26299 16.2941 4.85997 16.7334 4.57415 17.0679C4.28064 17.4113 4.09528 17.6645 3.98324 17.8295L3.80198 18.0961L3.81881 18.4121C3.83133 18.6471 3.86857 19.1492 3.97766 19.9513C4.04689 20.4573 4.14619 21.092 4.28905 21.8692C4.53911 23.2311 4.91678 24.9666 5.48559 27.0918C5.94857 28.8214 6.53759 30.8142 7.28608 33.0814C8.12031 35.6022 8.8788 37.6529 9.55165 39.3168C10.2201 40.9681 10.8048 42.2316 11.2964 43.192C11.6539 43.8896 11.9475 44.4028 12.1792 44.7771C12.4242 45.1721 12.6085 45.426 12.731 45.5826L12.9291 45.8359L13.2355 45.9185C13.5551 46.0045 14.4023 46.2127 15.8523 46.433C16.7016 46.5619 17.7994 46.6998 19.1911 46.8251C20.8195 46.9719 22.6856 47.079 24.6485 47.1366ZM10.0224 20.7042L6.92377 25.6429C6.85308 25.7553 6.85066 25.8881 6.91725 26.0032L7.56928 27.1314C7.63555 27.2461 7.75201 27.3106 7.88466 27.3057L13.716 27.0944C13.8352 27.0901 13.9359 27.032 13.9994 26.9309L17.0983 21.9919C17.1687 21.8796 17.1711 21.7467 17.1048 21.6317L16.4528 20.5034C16.3862 20.3886 16.2701 20.3243 16.1371 20.329L10.3061 20.5404C10.1866 20.5447 10.0859 20.6029 10.0224 20.7042ZM44.9748 20.7042L48.0738 25.6429C48.1443 25.7553 48.1467 25.8881 48.0803 26.0032L47.4283 27.1314C47.3617 27.2461 47.2455 27.3106 47.1126 27.3057L41.2816 27.0944C41.1621 27.0901 41.0614 27.032 40.998 26.9309L37.8992 21.9919C37.8285 21.8796 37.8261 21.7467 37.8925 21.6317L38.5447 20.5034C38.6111 20.3886 38.7274 20.3243 38.8602 20.329L44.6914 20.5404C44.8107 20.5447 44.9114 20.6029 44.9748 20.7042Z" fill="#FFD900"/>
<path d="M86.6402 29.5134L85.8464 30.141C83.4994 31.9773 80.8074 32.8953 77.7701 32.8953C76.0904 32.8953 74.4855 32.5931 72.9553 31.9889C71.4253 31.3844 70.0621 30.5128 68.8656 29.3738C67.623 28.1884 66.6682 26.8284 66.001 25.2943C65.3336 23.7601 65 22.1445 65 20.4475C65 18.7508 65.3336 17.1412 66.001 15.6186C66.6682 14.0959 67.623 12.742 68.8656 11.5563C70.0621 10.3942 71.4253 9.51105 72.9553 8.90648C74.4855 8.30236 76.0904 8 77.7701 8C80.7842 8 83.4648 8.91823 85.8118 10.7545L86.6058 11.3473L84.6727 17.2051L83.1196 15.7406C82.4064 15.0666 81.5954 14.555 80.6865 14.2064C79.7777 13.8576 78.8055 13.6833 77.7701 13.6833C76.7346 13.6833 75.7626 13.8634 74.8537 14.2238C73.9449 14.5842 73.1337 15.1014 72.4203 15.7754C71.04 17.1003 70.3497 18.6578 70.3497 20.4475C70.3497 21.331 70.5278 22.1737 70.8844 22.9757C71.2413 23.7776 71.7532 24.4925 72.4203 25.1201C73.1337 25.7941 73.9449 26.3113 74.8537 26.6716C75.7626 27.0319 76.7346 27.2119 77.7701 27.2119C78.8055 27.2119 79.7834 27.0319 80.7038 26.6716C81.6242 26.3113 82.4409 25.7941 83.1542 25.1201L84.7075 23.6556L86.6402 29.5134ZM115.356 20.657C115.954 21.331 116.409 22.0864 116.719 22.9233C117.03 23.7601 117.185 24.6318 117.185 25.5383C117.185 26.5613 116.995 27.5199 116.616 28.415C116.236 29.3099 115.713 30.0944 115.045 30.7684C114.378 31.4426 113.601 31.9713 112.715 32.3552C111.83 32.7385 110.881 32.9304 109.868 32.9304H96.9254V8.59268H109.868C110.904 8.59268 111.87 8.78444 112.767 9.16811C113.665 9.55164 114.447 10.1036 115.114 10.8242C115.713 11.4984 116.179 12.2772 116.512 13.1605C116.846 14.0436 117.013 14.9852 117.013 15.9847C117.013 17.7746 116.46 19.332 115.356 20.657ZM102.413 17.6584C102.413 17.8675 102.528 17.972 102.758 17.972H109.661C110.144 17.972 110.57 17.7804 110.938 17.3967C111.306 17.0132 111.49 16.5542 111.49 16.0195C111.513 15.4848 111.341 15.0375 110.973 14.677C110.604 14.317 110.167 14.1368 109.661 14.1368H102.758C102.528 14.1368 102.413 14.2413 102.413 14.4505V17.6584ZM102.413 27.0725C102.413 27.2816 102.528 27.3863 102.758 27.3863H109.834C110.34 27.3863 110.777 27.2063 111.145 26.846C111.513 26.4856 111.697 26.0382 111.697 25.5035C111.674 24.9688 111.485 24.5097 111.128 24.1262C110.771 23.7425 110.351 23.5509 109.868 23.5509H102.758C102.528 23.5509 102.413 23.6556 102.413 23.8646V27.0725ZM150.353 33H144.486L143.589 30.5243C143.542 30.3617 143.439 30.2803 143.278 30.2803H132.855C132.717 30.2803 132.613 30.3617 132.544 30.5243L131.681 33H125.814L134.511 8.5579H141.656L150.353 33ZM134.787 24.2483C134.741 24.3645 134.753 24.4692 134.822 24.5621C134.891 24.6551 134.983 24.7015 135.098 24.7015H141.069C141.368 24.7015 141.472 24.5506 141.379 24.2483L138.411 15.8799C138.342 15.7173 138.227 15.6361 138.066 15.6361C137.905 15.6361 137.802 15.7173 137.756 15.8799L134.787 24.2483ZM165.333 8.5579V21.3194C165.333 21.3661 165.344 21.3949 165.367 21.4066C165.39 21.4182 165.413 21.4007 165.436 21.3543L173.995 8.5579H179V33H173.478V19.5064C173.478 19.4599 173.466 19.4307 173.443 19.419C173.42 19.4074 173.397 19.425 173.374 19.4713L164.711 33H159.81V8.5579H165.333Z" fill="black"/>
<path d="M69.6956 43.6527C69.8654 43.8351 69.9946 44.0394 70.0827 44.2656C70.1709 44.4918 70.215 44.7277 70.215 44.9728C70.215 45.2492 70.1613 45.5102 70.0533 45.7554C69.9455 46.0006 69.7969 46.2141 69.6074 46.3965C69.4177 46.5787 69.1957 46.7217 68.9408 46.8254C68.6859 46.9293 68.4147 46.981 68.1272 46.981H65V45.4723H68.1272C68.2775 45.4723 68.4016 45.4237 68.4997 45.3264C68.5976 45.229 68.6465 45.1111 68.6465 44.9728C68.6465 44.8282 68.5959 44.7025 68.4948 44.5956C68.3936 44.4887 68.271 44.4353 68.1272 44.4353H65.5489V42.9267H68.0781C68.2154 42.9267 68.3362 42.8732 68.4407 42.7664C68.5453 42.6595 68.5976 42.5338 68.5976 42.3893C68.5976 42.2447 68.547 42.1252 68.4457 42.0309C68.3445 41.9365 68.2219 41.8893 68.0781 41.8893H65V40.3996H68.1272C68.4147 40.3996 68.6826 40.453 68.931 40.5599C69.1793 40.6668 69.3951 40.8099 69.5779 40.9891C69.7608 41.1682 69.9049 41.3788 70.0092 41.6206C70.1139 41.8627 70.1663 42.119 70.1663 42.3893C70.1663 42.8607 70.0092 43.2818 69.6956 43.6527ZM81.0182 47H79.3517L79.0968 46.3306C79.0838 46.2864 79.0545 46.2645 79.0086 46.2645H76.0481C76.009 46.2645 75.9796 46.2864 75.9599 46.3306L75.715 47H74.0485L76.5188 40.3904H78.5479L81.0182 47ZM76.597 44.6333C76.584 44.6646 76.5874 44.693 76.607 44.7181C76.6265 44.7432 76.6526 44.7557 76.6855 44.7557H78.3812C78.4663 44.7557 78.4958 44.715 78.4697 44.6333L77.6264 42.3704C77.607 42.3262 77.5744 42.3044 77.5284 42.3044C77.4827 42.3044 77.4532 42.3262 77.4403 42.3704L76.597 44.6333ZM88.743 42.9267C89.0305 42.9267 89.3034 42.9801 89.5617 43.087C89.8197 43.1938 90.0454 43.3386 90.2381 43.5207C90.4309 43.7031 90.5828 43.9166 90.694 44.1618C90.8051 44.407 90.8607 44.6709 90.8607 44.954C90.8607 45.2305 90.8066 45.493 90.6988 45.7412C90.5909 45.9895 90.4406 46.2064 90.2478 46.3917C90.0551 46.5772 89.8311 46.7233 89.5762 46.8302C89.3215 46.937 89.0504 46.9904 88.7626 46.9904H85.165V40.3996H90.3215V41.9365H86.8216C86.763 41.9365 86.7334 41.9682 86.7334 42.0309V42.842C86.7334 42.8983 86.763 42.9267 86.8216 42.9267H88.743ZM86.8216 44.4353C86.763 44.4353 86.7334 44.4667 86.7334 44.5297V45.3875C86.7334 45.4443 86.763 45.4723 86.8216 45.4723H88.7626C88.9132 45.4723 89.0405 45.4206 89.1451 45.3168C89.2496 45.2132 89.2987 45.0889 89.2919 44.9444C89.2919 44.7999 89.2398 44.679 89.1351 44.5813C89.0305 44.4839 88.9032 44.4353 88.7529 44.4353H86.8216ZM96.7423 40.3904V43.8414C96.7423 43.8539 96.7457 43.8617 96.7522 43.8649C96.7587 43.868 96.7652 43.8632 96.7717 43.8507L99.2029 40.3904H100.624V47H99.0559V43.351C99.0559 43.3386 99.0527 43.3304 99.0462 43.3275C99.0394 43.3242 99.0329 43.329 99.0263 43.3415L96.5659 47H95.1739V40.3904H96.7423ZM110.388 43.6622C110.558 43.8443 110.687 44.0487 110.776 44.2749C110.864 44.5012 110.908 44.737 110.908 44.9821C110.908 45.2588 110.854 45.5181 110.746 45.7599C110.638 46.002 110.49 46.2141 110.3 46.3965C110.11 46.5787 109.89 46.7217 109.638 46.8254C109.387 46.9293 109.117 46.981 108.83 46.981H105.154V40.3996H108.83C109.124 40.3996 109.398 40.4516 109.653 40.5553C109.908 40.6591 110.13 40.8084 110.32 41.0031C110.49 41.1855 110.622 41.3961 110.717 41.635C110.812 41.8738 110.859 42.1283 110.859 42.3985C110.859 42.8825 110.702 43.3039 110.388 43.6622ZM106.712 42.8511C106.712 42.9079 106.745 42.9359 106.81 42.9359H108.771C108.908 42.9359 109.029 42.8844 109.133 42.7804C109.238 42.6768 109.29 42.5527 109.29 42.408C109.297 42.2635 109.248 42.1426 109.143 42.045C109.039 41.9476 108.915 41.8989 108.771 41.8989H106.81C106.745 41.8989 106.712 41.9272 106.712 41.9837V42.8511ZM106.712 45.3971C106.712 45.4536 106.745 45.4819 106.81 45.4819H108.82C108.964 45.4819 109.088 45.4333 109.192 45.3357C109.297 45.2382 109.349 45.1174 109.349 44.9728C109.342 44.8282 109.289 44.704 109.188 44.6001C109.086 44.4966 108.967 44.4446 108.83 44.4446H106.81C106.745 44.4446 106.712 44.4729 106.712 44.5297V45.3971ZM118.28 43.6903L121.26 47H119.191L117.191 44.7747C117.159 44.7432 117.123 44.7354 117.084 44.7512C117.045 44.7667 117.025 44.7967 117.025 44.8408V47H115.417V40.3904H117.025V42.5496C117.025 42.5935 117.045 42.6218 117.084 42.6344C117.123 42.6469 117.159 42.6375 117.191 42.6061L119.191 40.3904H121.26L118.28 43.6903ZM132.132 47H130.465L130.21 46.3306C130.197 46.2864 130.168 46.2645 130.122 46.2645H127.161C127.122 46.2645 127.093 46.2864 127.073 46.3306L126.828 47H125.162L127.632 40.3904H129.661L132.132 47ZM127.71 44.6333C127.697 44.6646 127.701 44.693 127.72 44.7181C127.74 44.7432 127.766 44.7557 127.799 44.7557H129.494C129.579 44.7557 129.609 44.715 129.583 44.6333L128.74 42.3704C128.72 42.3262 128.688 42.3044 128.642 42.3044C128.596 42.3044 128.567 42.3262 128.554 42.3704L127.71 44.6333ZM148.356 46.0571L148.13 46.2267C147.464 46.7233 146.699 46.9717 145.836 46.9717C145.359 46.9717 144.903 46.8899 144.469 46.7265C144.034 46.5631 143.647 46.3272 143.307 46.0195C142.954 45.6988 142.683 45.3311 142.494 44.916C142.304 44.5012 142.209 44.0645 142.209 43.6055C142.209 43.1468 142.304 42.7114 142.494 42.2996C142.683 41.8879 142.954 41.5217 143.307 41.2012C143.647 40.887 144.034 40.6481 144.469 40.4847C144.903 40.3211 145.359 40.2395 145.836 40.2395C146.693 40.2395 147.454 40.4877 148.121 40.9843L148.346 41.1447L147.797 42.7287L147.356 42.3325C147.153 42.1503 146.923 42.0121 146.665 41.9178C146.407 41.8234 146.131 41.7762 145.836 41.7762C145.542 41.7762 145.266 41.8251 145.008 41.9224C144.75 42.0199 144.52 42.1599 144.317 42.342C143.925 42.7004 143.729 43.1214 143.729 43.6055C143.729 43.8443 143.779 44.0722 143.881 44.289C143.982 44.506 144.128 44.6992 144.317 44.8688C144.52 45.0513 144.75 45.1911 145.008 45.2887C145.266 45.3861 145.542 45.4347 145.836 45.4347C146.131 45.4347 146.408 45.3861 146.67 45.2887C146.931 45.1911 147.163 45.0513 147.366 44.8688L147.807 44.4729L148.356 46.0571ZM157.983 43.6622C158.152 43.8443 158.282 44.0487 158.37 44.2749C158.458 44.5012 158.502 44.737 158.502 44.9821C158.502 45.2588 158.448 45.5181 158.34 45.7599C158.232 46.002 158.084 46.2141 157.894 46.3965C157.705 46.5787 157.484 46.7217 157.232 46.8254C156.981 46.9293 156.711 46.981 156.424 46.981H152.748V40.3996H156.424C156.718 40.3996 156.992 40.4516 157.247 40.5553C157.502 40.6591 157.724 40.8084 157.914 41.0031C158.084 41.1855 158.216 41.3961 158.311 41.635C158.406 41.8738 158.453 42.1283 158.453 42.3985C158.453 42.8825 158.296 43.3039 157.983 43.6622ZM154.306 42.8511C154.306 42.9079 154.339 42.9359 154.404 42.9359H156.365C156.502 42.9359 156.623 42.8844 156.728 42.7804C156.832 42.6768 156.885 42.5527 156.885 42.408C156.891 42.2635 156.842 42.1426 156.737 42.045C156.633 41.9476 156.509 41.8989 156.365 41.8989H154.404C154.339 41.8989 154.306 41.9272 154.306 41.9837V42.8511ZM154.306 45.3971C154.306 45.4536 154.339 45.4819 154.404 45.4819H156.414C156.558 45.4819 156.682 45.4333 156.786 45.3357C156.891 45.2382 156.943 45.1174 156.943 44.9728C156.937 44.8282 156.883 44.704 156.782 44.6001C156.68 44.4966 156.561 44.4446 156.424 44.4446H154.404C154.339 44.4446 154.306 44.4729 154.306 44.5297V45.3971ZM169.403 47H167.736L167.481 46.3306C167.468 46.2864 167.439 46.2645 167.393 46.2645H164.433C164.394 46.2645 164.364 46.2864 164.344 46.3306L164.1 47H162.433L164.903 40.3904H166.932L169.403 47ZM164.982 44.6333C164.969 44.6646 164.972 44.693 164.992 44.7181C165.011 44.7432 165.037 44.7557 165.07 44.7557H166.766C166.851 44.7557 166.88 44.715 166.854 44.6333L166.011 42.3704C165.992 42.3262 165.959 42.3044 165.913 42.3044C165.867 42.3044 165.838 42.3262 165.825 42.3704L164.982 44.6333ZM174.895 38L176.255 38.8073L177.625 38L178.265 38.9724L176.255 40.1981L174.255 38.9724L174.895 38ZM175.118 40.3904V43.8414C175.118 43.8539 175.121 43.8617 175.128 43.8649C175.134 43.868 175.141 43.8632 175.148 43.8507L177.579 40.3904H179V47H177.431V43.351C177.431 43.3386 177.428 43.3304 177.422 43.3275C177.415 43.3242 177.409 43.329 177.402 43.3415L174.942 47H173.55V40.3904H175.118Z" fill="black"/>
</svg>
